<?xml version="1.0" standalone="no"?>
<svg viewBox="0 0 200 200" xmlns="http://www.w3.org/2000/svg">
  <path fill="#BAE6FF" d="M28.2,-49.8C37.7,-43.3,47.5,-38.2,54.5,-30.1C61.5,-22.1,65.8,-11,68.9,1.8C72.1,14.7,74.2,29.4,69.7,41.8C65.2,54.2,54.1,64.4,41.4,72.3C28.7,80.3,14.3,86.1,1.9,82.8C-10.5,79.5,-21.1,67.1,-34.9,59.8C-48.7,52.5,-65.8,50.2,-74.5,41C-83.2,31.9,-83.5,16,-79.5,2.3C-75.5,-11.4,-67.3,-22.7,-58.5,-31.7C-49.7,-40.6,-40.3,-47.2,-30.5,-53.5C-20.7,-59.8,-10.3,-65.9,-0.5,-65C9.3,-64.1,18.6,-56.2,28.2,-49.8Z" transform="translate(100 100)" />
</svg>
