<?xml version="1.0" encoding="UTF-8"?>
<svg id="Capa_1" xmlns="http://www.w3.org/2000/svg" viewBox="0 0 136 134">
  <defs>
    <style>
      .cls-1 {
        fill: none;
        stroke: #232020;
        stroke-linecap: round;
        stroke-linejoin: round;
        stroke-width: 4.25px;
      }

      .cls-2 {
        fill: #232020;
      }
    </style>
  </defs>
  <circle class="cls-1" cx="68" cy="67" r="58.73" transform="translate(-12.83 117.79) rotate(-76.72)"/>
  <path class="cls-2" d="M36.34,53.33c0-2.86,2.32-5.19,5.19-5.19s5.19,2.32,5.19,5.19-2.32,5.19-5.19,5.19-5.19-2.32-5.19-5.19Z"/>
  <path class="cls-2" d="M89.28,53.33c0-2.86,2.32-5.19,5.19-5.19s5.19,2.32,5.19,5.19-2.32,5.19-5.19,5.19-5.19-2.32-5.19-5.19Z"/>
  <path class="cls-1" d="M99.58,76.83c-4.19,13.46-16.74,23.23-31.58,23.23s-27.39-9.77-31.58-23.23"/>
  <line class="cls-1" x1="38.93" y1="75.39" x2="32.91" y2="78.27"/>
  <line class="cls-1" x1="97.07" y1="75.39" x2="103.09" y2="78.27"/>
</svg>